<?xml version="1.0" standalone="no"?>
<svg viewBox="0 0 200 200" xmlns="http://www.w3.org/2000/svg">
  <path fill="#08BDBA" d="M37,-61.1C48.7,-50,59.4,-41,63.2,-29.7C67.1,-18.4,64.1,-4.8,60.4,7.4C56.6,19.6,52.1,30.4,44.7,38.6C37.4,46.7,27.2,52.2,16,56.5C4.8,60.8,-7.4,63.9,-22.8,65.1C-38.2,66.3,-56.7,65.8,-66.4,56.5C-76.2,47.2,-77.1,29.2,-72.5,14.7C-67.9,0.2,-57.8,-10.8,-52.9,-25.1C-47.9,-39.5,-48,-57.1,-40,-69.9C-32,-82.7,-16,-90.7,-1.7,-88C12.6,-85.4,25.3,-72.2,37,-61.1Z" transform="translate(100 100)" />
</svg>
