<svg xmlns="http://www.w3.org/2000/svg" xmlns:xlink="http://www.w3.org/1999/xlink" width="81.325" height="110.464" viewBox="0 0 81.325 110.464">
  <defs>
    <linearGradient id="linear-gradient" x1="1" y1="0.5" x2="0" y2="0.5" gradientUnits="objectBoundingBox">
      <stop offset="0" stop-color="#e6fff7"/>
      <stop offset="1" stop-color="#024c4f"/>
    </linearGradient>
  </defs>
  <g id="Componente_2" data-name="Componente 2" transform="translate(0.5)">
    <path id="Subtração_3" data-name="Subtração 3" d="M1516.49,311.142a15.156,15.156,0,0,1-6.942-1.893,27.439,27.439,0,0,1-7.746-6.369c-4.843-5.4-10.839-15.217-13.72-19.936-.307-.5-.581-.951-.815-1.331-2.183-3.76-4.4-5.715-7.2-6.342l-2.362-4.635a34.843,34.843,0,0,0,11.092-3.558c5.331-2.822,10.71-8.931,10.71-16.218,0-5.868-1.683-10.053-5.145-12.795-3.169-2.509-7.742-3.729-13.98-3.729a31.265,31.265,0,0,0-6.12.612c-.755.3-1.071.6-1.071,1.683.224,6.391-.292,15.112-.84,23.5l-7.835-15.378-.271.138a15.706,15.706,0,0,0-.846-5.2c-.049-.114-.093-.222-.134-.322-.243-.6-.378-.926-.872-.926a2.77,2.77,0,0,0-.83.177c-2.086.549-4.7,2.265-7.009,3.779-.9.588-1.743,1.144-2.477,1.576a3.743,3.743,0,0,1-1.3.5c-.268,0-.382-.194-.382-.65a6.255,6.255,0,0,1,1.989-3.672,55.412,55.412,0,0,1,9.945-6.12,4.988,4.988,0,0,0,1.989-1.989c.879-1.173,5.625-4.59,6.579-4.59.669,0,.932.9,1.144,1.617a4.6,4.6,0,0,0,.233.678.859.859,0,0,0,.891.619,4.779,4.779,0,0,0,1.4-.313,76.456,76.456,0,0,1,13.005-1.53,30.954,30.954,0,0,1,9.044,1.224,18.37,18.37,0,0,1,6.62,3.519,14.844,14.844,0,0,1,4.067,5.584,19.086,19.086,0,0,1,1.384,7.421,20.633,20.633,0,0,1-4.466,13.231c-2.7,3.507-6.306,6.328-10.12,9.313l-.055.043-.658.516c-1.532,1.226-1.532,2.138,0,4.437.284.46.682,1.12,1.186,1.955l.012.02c3.04,5.044,9.365,15.539,13.949,20.516,6.105,6.552,9.789,8.874,14.076,8.874a21.211,21.211,0,0,0,6.579-.918,5.261,5.261,0,0,1,1.092-.2c.323,0,.438.133.438.507a3.268,3.268,0,0,1-1.683,2.448C1523.6,310.425,1519.215,311.142,1516.49,311.142Z" transform="translate(-1450.394 -223.536)" fill="#1c6061" stroke="rgba(0,0,0,0)" stroke-miterlimit="10" stroke-width="1"/>
    <text id="I" transform="translate(23.959 86.464)" fill="#1c6061" font-size="82" font-family="SanvitoPro-LtCapt, Sanvito Pro Caption"><tspan x="-19.598" y="0">I</tspan></text>
    <path id="Caminho_2" data-name="Caminho 2" d="M-1305.235,248.563l12.235-3.22-1.439,26.934-12.019-23.055Z" transform="translate(1316.959 -233.813)" fill="#fff"/>
    <circle id="Elipse_5" data-name="Elipse 5" cx="7" cy="7" r="7" transform="translate(5.959 24.464)" fill="url(#linear-gradient)"/>
    <path id="Caminho_3" data-name="Caminho 3" d="M-1305.664,244.235l11.714-3.966-2.4-6.733Z" transform="translate(1316.959 -233.536)" fill="#fff"/>
  </g>
</svg>
