<svg xmlns="http://www.w3.org/2000/svg" width="57.055" height="66.52" viewBox="0 0 57.055 66.52">
  <g id="Componente_1" data-name="Componente 1" transform="translate(1.972 2)">
    <g id="Grupo_1" data-name="Grupo 1">
      <path id="Caminho_4" data-name="Caminho 4" d="M-1235.969-630.556a29.7,29.7,0,0,1,7.281,2.267c4.348,1.893,4.106,2.684,10.629,1.331,2.817-.584,5.109-2.525,6.871-3.22a20.692,20.692,0,0,1,5.159-1.042s5.325,1.537,7.074,4.261l1.967,2.868,1.876,3.644c.171,1.241.341,1.876.486,2.858.158,1.018.139,2.552-.486,8.5-.966,9.2-3.813,23.322-4.828,25.405s-3.866,14.693-7.973,14.964-5.8-3.045-6.523-5.479c-.68-2.283-1.163-14.649-2.926-16.966a4.641,4.641,0,0,0-.7-.614,8.651,8.651,0,0,0-3.79-1.258c-1.594-.026-3.8.926-4.225,1.872-.761,1.7-1.165.468-2.615,9.123s-2.11,12.671-3.56,12.942-3.929,1.663-6.827-3.746c-1.551-2.894-3.533-8.859-5.013-13.3a75,75,0,0,1-2.792-16.951c-.966-14.876-1.616-18.434,1.765-23.3A10.244,10.244,0,0,1-1235.969-630.556Z" transform="translate(1247.656 631.219)" fill="none" stroke="#707070" stroke-linejoin="round" stroke-width="4"/>
      <path id="Caminho_5" data-name="Caminho 5" d="M9,0" transform="translate(1.656 52.216)" fill="none" stroke="#707070" stroke-width="1"/>
    </g>
  </g>
</svg>
