<svg id="Header_superior" data-name="Header superior" xmlns="http://www.w3.org/2000/svg" width="375" height="41" viewBox="0 0 375 41">
  <rect id="Mask" width="375" height="41" fill="#40babf"/>
  <text id="Prótese_total" data-name="Prótese total" transform="translate(46 29)" fill="#e6fff7" font-size="24" font-family="SegoeUI, Segoe UI"><tspan x="0" y="0">Prótese total</tspan></text>
  <g id="icon_action_search_24px" data-name="icon/action/search_24px" transform="translate(341 9)">
    <rect id="Boundary" width="24" height="24" fill="none"/>
    <path id="_Color" data-name=" ↳Color" d="M16.467,18h0l-5.146-5.134v-.813l-.278-.288a6.7,6.7,0,1,1,.721-.721l.288.278h.813L18,16.467,16.468,18ZM6.689,2.058a4.631,4.631,0,1,0,4.631,4.631A4.637,4.637,0,0,0,6.689,2.058Z" transform="translate(3 3)" fill="#4a4a4a"/>
  </g>
  <g id="Componente_1_3" data-name="Componente 1 – 3" transform="translate(11 11.241)">
    <g id="Grupo_1" data-name="Grupo 1">
      <path id="Caminho_4" data-name="Caminho 4" d="M-1243.89-631.012a9.8,9.8,0,0,1,2.346.708c1.4.591,1.323.838,3.425.416a11.381,11.381,0,0,0,2.214-1.005,6.858,6.858,0,0,1,1.662-.325,4.9,4.9,0,0,1,2.279,1.33l.634.9.6,1.138c.055.388.11.586.157.892a11.853,11.853,0,0,1-.157,2.654,47.251,47.251,0,0,1-1.555,7.931c-.327.65-1.246,4.587-2.569,4.672a2.064,2.064,0,0,1-2.1-1.71c-.219-.713-.375-4.573-.943-5.3a1.5,1.5,0,0,0-.225-.192,2.848,2.848,0,0,0-1.221-.393,1.77,1.77,0,0,0-1.361.584c-.245.532-.375.146-.842,2.848s-.68,3.956-1.147,4.04-1.266.519-2.2-1.17a33.553,33.553,0,0,1-1.615-4.152,22.763,22.763,0,0,1-.9-5.292c-.311-4.644-.521-5.755.569-7.275A3.355,3.355,0,0,1-1243.89-631.012Z" transform="translate(1247.656 631.219)" fill="none" stroke="#e6fff7" stroke-linejoin="round" stroke-width="4"/>
      <path id="Caminho_5" data-name="Caminho 5" d="M9,0" transform="translate(1.656 16.301)" fill="none" stroke="#e6fff7" stroke-width="1"/>
    </g>
  </g>
</svg>
